<?xml version="1.0" encoding="utf-8"?>
<!DOCTYPE svg PUBLIC "-//W3C//DTD SVG 1.1//EN" "http://www.w3.org/Graphics/SVG/1.1/DTD/svg11.dtd">
<svg version="1.1" id="Layer_1" xmlns="http://www.w3.org/2000/svg" xmlns:xlink="http://www.w3.org/1999/xlink" x="0px" y="0px"
	 width="15.75px" height="15.75px" viewBox="0 0 15.75 15.75" enable-background="new 0 0 15.75 15.75" xml:space="preserve">
<path fill="#FFFFFF" d="M7.875,0C3.533,0,0,3.533,0,7.875s3.533,7.875,7.875,7.875s7.875-3.533,7.875-7.875S12.217,0,7.875,0z
	 M8.723,3.75l-0.298,6h-1.02l-0.305-6H8.723z M8.544,12.053c-0.151,0.161-0.363,0.242-0.636,0.242c-0.277,0-0.493-0.078-0.647-0.234
	c-0.155-0.156-0.232-0.377-0.232-0.666s0.077-0.508,0.229-0.66c0.152-0.15,0.369-0.226,0.65-0.226c0.278,0,0.49,0.078,0.639,0.234
	c0.148,0.155,0.223,0.373,0.223,0.649C8.77,11.67,8.695,11.891,8.544,12.053z"/>
</svg>
