<?xml version="1.0" encoding="utf-8"?>
<!DOCTYPE svg PUBLIC "-//W3C//DTD SVG 1.1//EN" "http://www.w3.org/Graphics/SVG/1.1/DTD/svg11.dtd">
<svg version="1.1" id="Layer_1" xmlns="http://www.w3.org/2000/svg" xmlns:xlink="http://www.w3.org/1999/xlink" x="0px" y="0px"
	 width="21px" height="21px" viewBox="0 0 21 21" enable-background="new 0 0 21 21" xml:space="preserve">
<path fill="#eae1e1" d="M18.818,7.517c0,0,0-2.637,0-3.754c-0.747,0.726-2.986,2.903-4.146,4.03c1.14,1.393,1.827,3.16,1.827,5.083
	c0,4.478-3.701,8.121-8.249,8.121c-4.548,0-8.248-3.643-8.248-8.121c0-4.477,3.7-8.12,8.248-8.12c1.78,0,3.426,0.564,4.775,1.511
	c1.146-1.088,3.451-3.276,4.237-4.023c-1.201,0-4.123,0-4.123,0v-2.24h7.48h0.379v7.513H18.818z M2.277,12.876
	c0,3.243,2.68,5.88,5.973,5.88c3.293,0,5.973-2.638,5.973-5.88c0-3.242-2.68-5.88-5.973-5.88C4.957,6.996,2.277,9.634,2.277,12.876z
	"/>
</svg>
