<?xml version="1.0" encoding="utf-8"?>
<!DOCTYPE svg PUBLIC "-//W3C//DTD SVG 1.1//EN" "http://www.w3.org/Graphics/SVG/1.1/DTD/svg11.dtd">
<svg version="1.1" id="Layer_1" xmlns="http://www.w3.org/2000/svg" xmlns:xlink="http://www.w3.org/1999/xlink" x="0px" y="0px"
	 width="18px" height="25px" viewBox="0 0 18 25" enable-background="new 0 0 18 25" xml:space="preserve">
<path fill="#eae1e1" d="M10.063,17.665c0,0.455,0,0.892,0,1.128c0.677,0,4.999,0,4.999,0v2.328c0,0-4.321,0-4.999,0
	c0,0.602,0,3.25,0,3.25H7.615c0,0,0-2.648,0-3.25c-0.677,0-5.019,0-5.019,0v-2.328c0,0,4.341,0,5.019,0c0-0.243,0-0.691,0-1.15
	c-4.178-0.613-7.395-4.111-7.395-8.334c0-4.654,3.901-8.44,8.695-8.44c4.794,0,8.695,3.786,8.695,8.44
	C17.611,13.583,14.316,17.117,10.063,17.665z M8.916,3.196c-3.473,0-6.296,2.742-6.296,6.112c0,3.37,2.824,6.111,6.296,6.111
	c3.472,0,6.296-2.742,6.296-6.111C15.212,5.938,12.388,3.196,8.916,3.196z"/>
</svg>
